{
	"asset":{
		"generator":"Khronos glTF Blender I/O v3.6.27",
		"version":"2.0"
	},
	"scene":0,
	"scenes":[
		{
			"name":"Scene",
			"nodes":[
				0,
				1,
				2,
				3
			]
		}
	],
	"nodes":[
		{
			"mesh":0,
			"name":"Blade"
		},
		{
			"mesh":1,
			"name":"Guides"
		},
		{
			"mesh":2,
			"name":"Shoe",
			"translation":[
				0,
				0,
				-2.089973211288452
			]
		},
		{
			"mesh":3,
			"name":"Bumper"
		}
	],
	"materials":[
		{
			"doubleSided":true,
			"name":"Blade",
			"pbrMetallicRoughness":{
				"baseColorFactor":[
					0,
					0,
					0,
					1
				],
				"metallicFactor":0,
				"roughnessFactor":0.5
			}
		},
		{
			"doubleSided":true,
			"name":"Guides",
			"pbrMetallicRoughness":{
				"baseColorFactor":[
					0.012028435245156288,
					0.8000000715255737,
					0,
					1
				],
				"metallicFactor":0,
				"roughnessFactor":0.5
			}
		},
		{
			"doubleSided":true,
			"name":"Shoe",
			"pbrMetallicRoughness":{
				"baseColorFactor":[
					0.8000000715255737,
					0.6219935417175293,
					0,
					1
				],
				"metallicFactor":0,
				"roughnessFactor":0.5
			}
		},
		{
			"doubleSided":true,
			"name":"Bumper",
			"pbrMetallicRoughness":{
				"baseColorFactor":[
					0,
					0.037175487726926804,
					0.8000000715255737,
					1
				],
				"metallicFactor":0,
				"roughnessFactor":0.5
			}
		}
	],
	"meshes":[
		{
			"name":"Plane",
			"primitives":[
				{
					"attributes":{
						"POSITION":0,
						"NORMAL":1,
						"TEXCOORD_0":2
					},
					"indices":3,
					"material":0
				}
			]
		},
		{
			"name":"Cube.001",
			"primitives":[
				{
					"attributes":{
						"POSITION":4,
						"NORMAL":5,
						"TEXCOORD_0":6
					},
					"indices":7,
					"material":1
				}
			]
		},
		{
			"name":"Plane.001",
			"primitives":[
				{
					"attributes":{
						"POSITION":8,
						"NORMAL":9,
						"TEXCOORD_0":10
					},
					"indices":11,
					"material":2
				}
			]
		},
		{
			"name":"Plane.007",
			"primitives":[
				{
					"attributes":{
						"POSITION":12,
						"NORMAL":13,
						"TEXCOORD_0":14
					},
					"indices":15,
					"material":3
				}
			]
		}
	],
	"accessors":[
		{
			"bufferView":0,
			"componentType":5126,
			"count":50,
			"max":[
				1,
				0.00319776963442564,
				1.5612826347351074
			],
			"min":[
				-1,
				-0.011240217834711075,
				-1.94907808303833
			],
			"type":"VEC3"
		},
		{
			"bufferView":1,
			"componentType":5126,
			"count":50,
			"type":"VEC3"
		},
		{
			"bufferView":2,
			"componentType":5126,
			"count":50,
			"type":"VEC2"
		},
		{
			"bufferView":3,
			"componentType":5123,
			"count":192,
			"type":"SCALAR"
		},
		{
			"bufferView":4,
			"componentType":5126,
			"count":1476,
			"max":[
				0.6582766175270081,
				0.09293518960475922,
				1.07212495803833
			],
			"min":[
				-0.6582766175270081,
				-0.1141018271446228,
				-0.9131475687026978
			],
			"type":"VEC3"
		},
		{
			"bufferView":5,
			"componentType":5126,
			"count":1476,
			"type":"VEC3"
		},
		{
			"bufferView":6,
			"componentType":5126,
			"count":1476,
			"type":"VEC2"
		},
		{
			"bufferView":7,
			"componentType":5123,
			"count":7680,
			"type":"SCALAR"
		},
		{
			"bufferView":8,
			"componentType":5126,
			"count":8498,
			"max":[
				0.6003714799880981,
				0.21459928154945374,
				1.1107486486434937
			],
			"min":[
				-0.6003714799880981,
				-0.025293301790952682,
				-1.4664515256881714
			],
			"type":"VEC3"
		},
		{
			"bufferView":9,
			"componentType":5126,
			"count":8498,
			"type":"VEC3"
		},
		{
			"bufferView":10,
			"componentType":5126,
			"count":8498,
			"type":"VEC2"
		},
		{
			"bufferView":11,
			"componentType":5123,
			"count":30828,
			"type":"SCALAR"
		},
		{
			"bufferView":12,
			"componentType":5126,
			"count":2725,
			"max":[
				1.0464797019958496,
				0.010624498128890991,
				1.616906762123108
			],
			"min":[
				-1.0464798212051392,
				-0.03063022904098034,
				-2.0723233222961426
			],
			"type":"VEC3"
		},
		{
			"bufferView":13,
			"componentType":5126,
			"count":2725,
			"type":"VEC3"
		},
		{
			"bufferView":14,
			"componentType":5126,
			"count":2725,
			"type":"VEC2"
		},
		{
			"bufferView":15,
			"componentType":5123,
			"count":15648,
			"type":"SCALAR"
		}
	],
	"bufferViews":[
		{
			"buffer":0,
			"byteLength":600,
			"byteOffset":0,
			"target":34962
		},
		{
			"buffer":0,
			"byteLength":600,
			"byteOffset":600,
			"target":34962
		},
		{
			"buffer":0,
			"byteLength":400,
			"byteOffset":1200,
			"target":34962
		},
		{
			"buffer":0,
			"byteLength":384,
			"byteOffset":1600,
			"target":34963
		},
		{
			"buffer":0,
			"byteLength":17712,
			"byteOffset":1984,
			"target":34962
		},
		{
			"buffer":0,
			"byteLength":17712,
			"byteOffset":19696,
			"target":34962
		},
		{
			"buffer":0,
			"byteLength":11808,
			"byteOffset":37408,
			"target":34962
		},
		{
			"buffer":0,
			"byteLength":15360,
			"byteOffset":49216,
			"target":34963
		},
		{
			"buffer":0,
			"byteLength":101976,
			"byteOffset":64576,
			"target":34962
		},
		{
			"buffer":0,
			"byteLength":101976,
			"byteOffset":166552,
			"target":34962
		},
		{
			"buffer":0,
			"byteLength":67984,
			"byteOffset":268528,
			"target":34962
		},
		{
			"buffer":0,
			"byteLength":61656,
			"byteOffset":336512,
			"target":34963
		},
		{
			"buffer":0,
			"byteLength":32700,
			"byteOffset":398168,
			"target":34962
		},
		{
			"buffer":0,
			"byteLength":32700,
			"byteOffset":430868,
			"target":34962
		},
		{
			"buffer":0,
			"byteLength":21800,
			"byteOffset":463568,
			"target":34962
		},
		{
			"buffer":0,
			"byteLength":31296,
			"byteOffset":485368,
			"target":34963
		}
	],
	"buffers":[
		{
			"byteLength":516664,
			"uri":"data:application/octet-stream;base64,"
		}
	]
}
