<svg width="850" height="200" viewBox="0 0 850 200" fill="none" xmlns="http://www.w3.org/2000/svg">
<path fill-rule="evenodd" clip-rule="evenodd" d="M350.4 33.0667C353.2 16.1333 355.2 1.6 354.8 1.06667C354 -0.266667 326.133 -0.266667 324.133 1.06667C323.333 1.6 318.4 28.4 313.067 60.6667C307.733 92.9333 303.067 120.4 302.8 121.6C302.133 123.733 303.467 124 318.133 124C327.2 124 334.4 123.467 334.933 122.667C335.333 122 336.267 118 336.933 113.867C338.267 105.867 340.267 102.933 349.067 95.8667L353.867 92.1333L362.8 108L371.733 124H389.067C398.533 124 406.267 123.6 406.267 123.067C406.267 122.667 399.867 110.8 392 96.9333C382.133 79.3333 378.133 71.0667 379.067 69.8667C379.733 68.9333 388.933 60.5333 399.6 51.2C410.267 41.8667 419.2 33.7333 419.333 33.0667C419.6 32.5333 411.333 32 400.933 32H382L366.4 45.6C362.926 48.6397 359.518 51.6353 356.591 54.2088L356.584 54.2149L356.579 54.2193L356.577 54.2208C352.32 57.9628 349.081 60.8103 348.133 61.6C345.467 63.8667 345.6 62.8 350.4 33.0667ZM580.267 27.6C583.467 9.73333 584.533 1.86667 584 0.933333C583.2 -0.4 553.2 -0.266667 552.4 1.2C552 1.86667 547.6 26.4 542.8 55.6C534 108.8 534 108.933 536.4 114C540.4 122.4 545.6 124 571.733 124H594L595.467 115.6C596.267 110.933 596.933 106.4 596.933 105.6C596.933 104.533 592.933 104 583.6 104C572.267 104 570 103.6 569.333 101.733C568.8 100.533 570.133 89.2 572.267 76.4L576 53.4667L590.667 53.0667C591.641 53.0433 592.554 53.0245 593.411 53.0068L593.412 53.0068C600.143 52.868 603.362 52.8017 605.112 51.1649C606.717 49.6649 607.088 46.8458 607.799 41.443L607.801 41.4254C607.903 40.6492 608.012 39.8198 608.133 38.9333L609.067 32H594.267H579.467L580.267 27.6ZM689.198 19.0901C690.84 17.5315 691.223 14.6462 691.963 9.06986C692.057 8.35803 692.157 7.60236 692.267 6.8L693.2 0L674 0.133333C663.6 0.266667 654 0.533333 652.933 0.666667C652.27 0.832492 650.782 1.10143 649.078 1.40937C648.042 1.59663 646.925 1.79832 645.867 2C640.4 2.93333 632.533 8.93333 629.6 14.8C628.533 16.8 624 40.2667 619.6 66.9333C616.324 86.6871 613.344 104.963 611.87 114.003L611.868 114.014C611.363 117.11 611.035 119.121 610.933 119.733L610.133 124.133L626.533 123.733L642.933 123.333L648.8 88.4L654.667 53.4667L669.333 53.0667L684.133 52.6667L685.067 49.0667C685.6 47.0667 686.4 42.4 686.933 38.8L687.867 32H673.067L672.176 32.0001C663.154 32.0016 659.728 32.0022 658.84 30.5013C658.297 29.5824 658.705 28.1006 659.363 25.7115L659.467 25.3333C660.4 22.1333 660.8 22 674.933 21.3333C675.872 21.2875 676.753 21.2474 677.581 21.2098C684.229 20.9072 687.438 20.7612 689.198 19.0901ZM738.721 10.6754V10.675C738.787 10.1272 738.857 9.54722 738.933 8.93333L739.867 1.33333H723.867C722.903 1.33333 721.995 1.3314 721.138 1.32957C713.036 1.31228 709.557 1.30485 707.854 3.0403C706.572 4.3463 706.296 6.63933 705.812 10.658V10.6583C705.747 11.2062 705.677 11.7861 705.6 12.4L704.667 20H720.667C721.63 20 722.539 20.0019 723.395 20.0038C731.497 20.0211 734.976 20.0285 736.679 18.293C737.961 16.987 738.237 14.694 738.721 10.6754ZM74 51.6C74.6667 50.8 75.7333 46 76.2667 40.9333L77.2 32L56.1333 32.1333C27.8667 32.2667 20.5333 34.6667 14.5333 46C13.4667 48.1333 9.73333 66.6667 6.26666 86.9333L-2.26105e-06 124H16.4H32.6667L33.4667 120.267C33.8667 118.267 36.4 103.733 38.9333 88C41.4667 72.2667 43.8667 58 44.2667 56.2667C44.9333 53.4667 45.6 53.3333 58.8 53.3333C68.2667 53.3333 73.0667 52.8 74 51.6ZM187.6 49.6C187.6 41.3333 183.333 35.4667 175.867 33.3333C170 31.7333 112.667 31.7333 107.333 33.3333C100.267 35.4667 94.4 40.1333 91.7333 45.7333C88.8 51.7333 80.9333 96.2667 80.9333 106.8C80.9333 114.133 84.4 119.333 91.0667 122.133C96.8 124.533 155.467 124.8 162.4 122.4C169.6 120 173.867 116.4 176.8 110.267C179.733 104 187.6 60.2667 187.6 49.6ZM299.917 42.5758V42.5756L299.917 42.5733C300.02 41.6618 300.131 40.673 300.267 39.6L301.2 32L266.133 32.1333C240.267 32.1333 229.333 32.6667 225.067 34C218.267 36.1333 210.8 42.8 208.933 48.5333C206.933 54.8 199.6 101.067 199.6 107.467C199.6 114.533 204.4 120.667 211.333 122.667C214.133 123.333 231.467 124 251.067 124H286L286.667 120.933C287.067 119.333 287.867 114.8 288.4 110.933L289.333 104H261.733C238.933 104 234 103.733 233.467 102C233.067 100.933 234.4 89.7333 236.533 77.0667L240.4 54L268.667 53.6C271.052 53.5706 273.246 53.5498 275.267 53.5307L275.268 53.5307C290.069 53.3906 295.524 53.339 297.838 50.6172C299.189 49.0288 299.471 46.5311 299.917 42.5758ZM522.533 57.6C524.533 42.6667 523.333 39.6 514.267 34.9333C508.667 32.1333 506.933 32 479.6 32.1333C448.133 32.1333 442 33.2 435.467 39.4667C430 44.6667 428.133 50.8 423.6 78.2667C418.4 109.867 418.4 112.4 424 118C429.867 123.867 432.933 124.267 474.267 123.733L508.133 123.333L509.067 118.667C509.6 116.133 510.4 111.733 510.8 109.067L511.733 104L482.667 103.733L453.6 103.333L454 96.6667C454.133 92.9333 454.533 89.2 454.933 88.2667C455.333 87.0667 462.933 86.6667 486.8 86.6667H518L519.467 78.2667C520.267 73.7333 521.733 64.4 522.533 57.6ZM720.267 120.933C721.733 114.667 734.267 37.3333 734.267 34.8C734.267 32.1333 733.467 32 718.267 32C709.467 32 702.267 32.2667 702.267 32.4C702.267 32.5617 701.041 39.8843 699.183 50.9766L699.155 51.1473L699.12 51.3545C697.927 58.4795 696.48 67.1209 694.933 76.4C690.933 100.267 687.6 120.8 687.6 121.867C687.6 123.733 690 124 703.6 124C719.067 124 719.6 123.867 720.267 120.933ZM848.267 40.5333C847.067 38.6667 843.6 36 840.533 34.5333C835.467 32.2667 831.333 32 795.333 32C773.6 32 755.467 32.5333 755.067 33.0667C754.667 33.7333 751.333 52.5333 747.6 74.8C744 97.0667 740.667 117.333 740.267 119.733L739.467 124.133L755.867 123.733L772.267 123.333L778.133 88.2667L784 53.3333H800.533C814.533 53.3333 816.933 53.6 816.933 55.4667C816.933 56.5333 814.533 71.8667 811.6 89.3333C808.667 106.8 806.267 121.733 806.267 122.667C806.267 123.6 811.333 124 822.533 123.733L838.8 123.333L843.733 94C850.533 54.1333 851.2 45.0667 848.267 40.5333ZM832.533 152.8C832.8 152.533 690.933 152 517.333 151.467C343.733 151.067 156.267 150.4 100.933 150C0.533331 149.2 0.266664 149.2 2.93333 151.867C4.4 153.333 18.8 164.8 34.9333 177.2L64.2667 200L72.9333 199.333C77.7333 198.933 250.4 188.4 456.8 175.867C663.2 163.467 832.267 153.067 832.533 152.8ZM121.867 54.2667C120.4 56.6667 114 100 114.667 101.867C115.333 103.6 118 104 129.333 104C138.267 104 143.867 103.467 145.2 102.267C146.667 101.2 148.4 94.1333 150.8 79.7333C152.667 68.2667 154.267 57.6 154.267 56.1333C154.267 53.4667 153.6 53.3333 138.4 53.3333C129.6 53.3333 122.133 53.7333 121.867 54.2667ZM459.6 60C459.833 58.8 460.067 57.6 460.267 56.6667C460.933 53.3333 461.067 53.3333 475.733 53.3333H490.667L489.733 58.9333C489.2 61.8667 488.533 64.9333 488.133 65.6C487.733 66.1333 480.8 66.6667 472.8 66.6667H458.267L458.933 63.3333C459.133 62.4 459.367 61.2 459.6 60Z" fill="#3FBC92"/>
</svg>